<?xml version="1.0" encoding="iso-8859-1"?>
<!-- Generator: Adobe Illustrator 19.0.0, SVG Export Plug-In . SVG Version: 6.00 Build 0)  -->
<svg version="1.1" id="Capa_1" xmlns="http://www.w3.org/2000/svg" xmlns:xlink="http://www.w3.org/1999/xlink" x="0px" y="0px"
	 viewBox="0 0 512.003 512.003" style="enable-background:new 0 0 512.003 512.003;" xml:space="preserve">
<g>
	<g>
		<path d="M255.991,16.001c-79.392,0-144,64.608-144,144c0,117.92,128,231.264,133.472,236.032
			c3.008,2.656,6.752,3.968,10.528,3.968c3.776,0,7.52-1.312,10.528-3.968c5.472-4.768,133.472-118.112,133.472-236.032
			C399.991,80.609,335.383,16.001,255.991,16.001z M255.991,362.049c-29.728-28.992-112-116.96-112-202.048
			c0-61.76,50.24-112,112-112s112,50.24,112,112C367.991,245.09,285.719,333.057,255.991,362.049z"/>
	</g>
</g>
<g>
	<g>
		<path d="M255.991,112.001c-26.464,0-48,21.536-48,48s21.536,48,48,48s48-21.536,48-48S282.455,112.001,255.991,112.001z
			 M255.991,176.001c-8.832,0-16-7.168-16-16c0-8.832,7.168-16,16-16c8.832,0,16,7.168,16,16
			C271.991,168.833,264.823,176.001,255.991,176.001z"/>
	</g>
</g>
<g>
	<g>
		<path d="M511.159,474.913l-64-192c-2.176-6.496-8.288-10.912-15.168-10.912h-32c-8.832,0-16,7.168-16,16c0,8.832,7.168,16,16,16
			h20.48l53.344,160H38.199l53.312-160h20.48c8.832,0,16-7.168,16-16c0-8.832-7.168-16-16-16h-32
			c-6.88,0-12.992,4.416-15.168,10.944l-64,192c-1.632,4.864-0.8,10.24,2.176,14.432c3.008,4.16,7.84,6.624,12.992,6.624h480
			c5.152,0,9.984-2.464,12.992-6.656C511.991,485.185,512.823,479.809,511.159,474.913z"/>
	</g>
</g>
<g>
</g>
<g>
</g>
<g>
</g>
<g>
</g>
<g>
</g>
<g>
</g>
<g>
</g>
<g>
</g>
<g>
</g>
<g>
</g>
<g>
</g>
<g>
</g>
<g>
</g>
<g>
</g>
<g>
</g>
</svg>
